<svg width="1200" height="760" viewBox="0 0 1200 760" fill="none" xmlns="http://www.w3.org/2000/svg" role="img" aria-labelledby="applicationTitle applicationDesc">
  <title id="applicationTitle">Nexova application illustration</title>
  <desc id="applicationDesc">Ilustracion abstracta de formulario, evaluacion profesional y crecimiento laboral.</desc>
  <rect width="1200" height="760" rx="48" fill="#F8FAFC"/>
  <circle cx="182" cy="158" r="88" fill="#DBEAFE"/>
  <circle cx="1012" cy="600" r="126" fill="#E0F2FE"/>
  <rect x="92" y="88" width="1016" height="584" rx="36" fill="white"/>
  <rect x="140" y="136" width="470" height="488" rx="28" fill="#F8FAFC" stroke="#DBEAFE" stroke-width="4"/>
  <rect x="186" y="188" width="180" height="22" rx="11" fill="#2563EB" fill-opacity="0.16"/>
  <rect x="186" y="238" width="378" height="62" rx="18" fill="white" stroke="#CBD5E1" stroke-width="4"/>
  <rect x="186" y="330" width="378" height="62" rx="18" fill="white" stroke="#CBD5E1" stroke-width="4"/>
  <rect x="186" y="422" width="378" height="62" rx="18" fill="white" stroke="#CBD5E1" stroke-width="4"/>
  <rect x="186" y="514" width="378" height="62" rx="18" fill="#2563EB"/>
  <rect x="656" y="136" width="404" height="220" rx="28" fill="#2563EB"/>
  <circle cx="746" cy="226" r="42" fill="white" fill-opacity="0.2"/>
  <path d="M722 250L744 228L762 246L794 214" stroke="white" stroke-width="12" stroke-linecap="round" stroke-linejoin="round"/>
  <rect x="820" y="188" width="176" height="18" rx="9" fill="white" fill-opacity="0.74"/>
  <rect x="820" y="220" width="138" height="14" rx="7" fill="white" fill-opacity="0.58"/>
  <rect x="820" y="248" width="154" height="14" rx="7" fill="white" fill-opacity="0.58"/>
  <rect x="656" y="390" width="404" height="234" rx="28" fill="#F8FAFC" stroke="#DBEAFE" stroke-width="4"/>
  <rect x="698" y="438" width="320" height="18" rx="9" fill="#CBD5E1"/>
  <rect x="698" y="474" width="274" height="18" rx="9" fill="#CBD5E1"/>
  <rect x="698" y="510" width="214" height="18" rx="9" fill="#CBD5E1"/>
  <rect x="698" y="558" width="136" height="44" rx="22" fill="#0EA5E9" fill-opacity="0.16"/>
  <rect x="852" y="558" width="166" height="44" rx="22" fill="#2563EB"/>
</svg>